<mxfile host="app.diagrams.net" agent="Mozilla/5.0 (Windows NT 10.0; Win64; x64) AppleWebKit/537.36 (KHTML, like Gecko) Chrome/134.0.0.0 Safari/537.36" version="26.1.1">
  <diagram name="Page-1" id="c4acf3e9-155e-7222-9cf6-157b1a14988f">
    <mxGraphModel dx="1013" dy="1242" grid="1" gridSize="10" guides="1" tooltips="1" connect="1" arrows="1" fold="1" page="1" pageScale="1" pageWidth="1100" pageHeight="850" background="none" math="0" shadow="0">
      <root>
        <mxCell id="0" />
        <mxCell id="1" parent="0" />
        <mxCell id="vp1Ev-h1PS9OKGyUTr1B-1" value="Klient&lt;div&gt;&lt;br&gt;&lt;/div&gt;" style="shape=umlActor;verticalLabelPosition=bottom;verticalAlign=top;html=1;outlineConnect=0;" parent="1" vertex="1">
          <mxGeometry x="80" y="260" width="30" height="60" as="geometry" />
        </mxCell>
        <mxCell id="vp1Ev-h1PS9OKGyUTr1B-5" value="&lt;div&gt;Krupier&lt;/div&gt;&lt;div&gt;&lt;br&gt;&lt;/div&gt;" style="shape=umlActor;verticalLabelPosition=bottom;verticalAlign=top;html=1;outlineConnect=0;" parent="1" vertex="1">
          <mxGeometry x="570" y="30" width="30" height="60" as="geometry" />
        </mxCell>
        <mxCell id="vp1Ev-h1PS9OKGyUTr1B-6" value="&lt;div&gt;Recepcjonista&lt;/div&gt;&lt;div&gt;&lt;br&gt;&lt;/div&gt;" style="shape=umlActor;verticalLabelPosition=bottom;verticalAlign=top;html=1;outlineConnect=0;" parent="1" vertex="1">
          <mxGeometry x="1000" y="400" width="30" height="60" as="geometry" />
        </mxCell>
        <mxCell id="vp1Ev-h1PS9OKGyUTr1B-7" value="&lt;div&gt;Administrator&lt;/div&gt;&lt;div&gt;&lt;br&gt;&lt;/div&gt;" style="shape=umlActor;verticalLabelPosition=bottom;verticalAlign=top;html=1;outlineConnect=0;" parent="1" vertex="1">
          <mxGeometry x="805" width="30" height="60" as="geometry" />
        </mxCell>
        <mxCell id="vp1Ev-h1PS9OKGyUTr1B-10" value="Administruj System" style="ellipse;whiteSpace=wrap;html=1;" parent="1" vertex="1">
          <mxGeometry x="910" y="70" width="120" height="80" as="geometry" />
        </mxCell>
        <mxCell id="21yyyPcz-Bat1MeMMOh2-1" value="Weź udział" style="ellipse;whiteSpace=wrap;html=1;" vertex="1" parent="1">
          <mxGeometry x="200" y="270" width="120" height="80" as="geometry" />
        </mxCell>
        <mxCell id="21yyyPcz-Bat1MeMMOh2-2" value="Zakład bukmacherski" style="ellipse;whiteSpace=wrap;html=1;" vertex="1" parent="1">
          <mxGeometry x="460" y="420" width="120" height="80" as="geometry" />
        </mxCell>
        <mxCell id="21yyyPcz-Bat1MeMMOh2-3" value="Gra losowa" style="ellipse;whiteSpace=wrap;html=1;" vertex="1" parent="1">
          <mxGeometry x="380" y="130" width="120" height="80" as="geometry" />
        </mxCell>
        <mxCell id="21yyyPcz-Bat1MeMMOh2-6" value="" style="endArrow=open;html=1;rounded=0;entryX=1;entryY=0.5;entryDx=0;entryDy=0;dashed=1;endFill=0;exitX=0;exitY=1;exitDx=0;exitDy=0;" edge="1" parent="1" source="21yyyPcz-Bat1MeMMOh2-3" target="21yyyPcz-Bat1MeMMOh2-1">
          <mxGeometry relative="1" as="geometry">
            <mxPoint x="280" y="210" as="sourcePoint" />
            <mxPoint x="400" y="340" as="targetPoint" />
          </mxGeometry>
        </mxCell>
        <mxCell id="21yyyPcz-Bat1MeMMOh2-7" value="&amp;lt;&amp;lt;extend&amp;gt;&amp;gt;" style="edgeLabel;resizable=0;html=1;;align=center;verticalAlign=middle;" connectable="0" vertex="1" parent="21yyyPcz-Bat1MeMMOh2-6">
          <mxGeometry relative="1" as="geometry" />
        </mxCell>
        <mxCell id="21yyyPcz-Bat1MeMMOh2-10" value="" style="endArrow=open;html=1;rounded=0;exitX=0;exitY=0.5;exitDx=0;exitDy=0;jumpStyle=none;dashed=1;endFill=0;entryX=1;entryY=1;entryDx=0;entryDy=0;" edge="1" parent="1" source="21yyyPcz-Bat1MeMMOh2-2" target="21yyyPcz-Bat1MeMMOh2-1">
          <mxGeometry relative="1" as="geometry">
            <mxPoint x="486" y="509" as="sourcePoint" />
            <mxPoint x="290" y="360" as="targetPoint" />
          </mxGeometry>
        </mxCell>
        <mxCell id="21yyyPcz-Bat1MeMMOh2-11" value="&amp;lt;&amp;lt;extend&amp;gt;&amp;gt;" style="edgeLabel;resizable=0;html=1;;align=center;verticalAlign=middle;" connectable="0" vertex="1" parent="21yyyPcz-Bat1MeMMOh2-10">
          <mxGeometry relative="1" as="geometry" />
        </mxCell>
        <mxCell id="21yyyPcz-Bat1MeMMOh2-12" value="" style="endArrow=none;html=1;rounded=0;entryX=0;entryY=0.5;entryDx=0;entryDy=0;" edge="1" parent="1" source="vp1Ev-h1PS9OKGyUTr1B-1" target="21yyyPcz-Bat1MeMMOh2-1">
          <mxGeometry width="50" height="50" relative="1" as="geometry">
            <mxPoint x="270" y="500" as="sourcePoint" />
            <mxPoint x="320" y="450" as="targetPoint" />
          </mxGeometry>
        </mxCell>
        <mxCell id="21yyyPcz-Bat1MeMMOh2-15" value="Rozlicz" style="ellipse;whiteSpace=wrap;html=1;" vertex="1" parent="1">
          <mxGeometry x="710" y="270" width="120" height="80" as="geometry" />
        </mxCell>
        <mxCell id="21yyyPcz-Bat1MeMMOh2-17" value="Wypłać" style="ellipse;whiteSpace=wrap;html=1;" vertex="1" parent="1">
          <mxGeometry x="520" y="300" width="120" height="80" as="geometry" />
        </mxCell>
        <mxCell id="21yyyPcz-Bat1MeMMOh2-18" value="" style="endArrow=open;html=1;rounded=0;exitX=1;exitY=0.5;exitDx=0;exitDy=0;entryX=0;entryY=0.5;entryDx=0;entryDy=0;dashed=1;endFill=0;" edge="1" parent="1" source="21yyyPcz-Bat1MeMMOh2-17" target="21yyyPcz-Bat1MeMMOh2-15">
          <mxGeometry relative="1" as="geometry">
            <mxPoint x="756" y="620" as="sourcePoint" />
            <mxPoint x="758" y="558" as="targetPoint" />
          </mxGeometry>
        </mxCell>
        <mxCell id="21yyyPcz-Bat1MeMMOh2-19" value="&amp;lt;&amp;lt;extend&amp;gt;&amp;gt;" style="edgeLabel;resizable=0;html=1;;align=center;verticalAlign=middle;" connectable="0" vertex="1" parent="21yyyPcz-Bat1MeMMOh2-18">
          <mxGeometry relative="1" as="geometry" />
        </mxCell>
        <mxCell id="21yyyPcz-Bat1MeMMOh2-21" value="" style="endArrow=none;html=1;rounded=0;" edge="1" parent="1" source="vp1Ev-h1PS9OKGyUTr1B-6" target="21yyyPcz-Bat1MeMMOh2-28">
          <mxGeometry width="50" height="50" relative="1" as="geometry">
            <mxPoint x="790" y="410" as="sourcePoint" />
            <mxPoint x="840" y="360" as="targetPoint" />
          </mxGeometry>
        </mxCell>
        <mxCell id="21yyyPcz-Bat1MeMMOh2-24" value="" style="endArrow=open;html=1;rounded=0;entryX=1;entryY=0.5;entryDx=0;entryDy=0;endFill=0;dashed=1;exitX=0;exitY=0.5;exitDx=0;exitDy=0;" edge="1" parent="1" source="21yyyPcz-Bat1MeMMOh2-28" target="21yyyPcz-Bat1MeMMOh2-2">
          <mxGeometry relative="1" as="geometry">
            <mxPoint x="610" y="340" as="sourcePoint" />
            <mxPoint x="590" y="500" as="targetPoint" />
          </mxGeometry>
        </mxCell>
        <mxCell id="21yyyPcz-Bat1MeMMOh2-25" value="&amp;lt;&amp;lt;include&amp;gt;&amp;gt;" style="edgeLabel;resizable=0;html=1;;align=center;verticalAlign=middle;" connectable="0" vertex="1" parent="21yyyPcz-Bat1MeMMOh2-24">
          <mxGeometry relative="1" as="geometry" />
        </mxCell>
        <mxCell id="21yyyPcz-Bat1MeMMOh2-28" value="Zarządzaj&lt;div&gt;zakładem bukmacherskim&lt;/div&gt;" style="ellipse;whiteSpace=wrap;html=1;" vertex="1" parent="1">
          <mxGeometry x="790" y="410" width="120" height="80" as="geometry" />
        </mxCell>
        <mxCell id="21yyyPcz-Bat1MeMMOh2-40" value="Zarządzaj&lt;div&gt;grą losową&lt;/div&gt;" style="ellipse;whiteSpace=wrap;html=1;" vertex="1" parent="1">
          <mxGeometry x="590" y="140" width="120" height="80" as="geometry" />
        </mxCell>
        <mxCell id="21yyyPcz-Bat1MeMMOh2-41" value="" style="endArrow=open;html=1;rounded=0;entryX=1;entryY=0.5;entryDx=0;entryDy=0;endFill=0;dashed=1;exitX=0;exitY=0.5;exitDx=0;exitDy=0;" edge="1" parent="1" source="21yyyPcz-Bat1MeMMOh2-40" target="21yyyPcz-Bat1MeMMOh2-3">
          <mxGeometry relative="1" as="geometry">
            <mxPoint x="670" y="220" as="sourcePoint" />
            <mxPoint x="580" y="170" as="targetPoint" />
          </mxGeometry>
        </mxCell>
        <mxCell id="21yyyPcz-Bat1MeMMOh2-42" value="&amp;lt;&amp;lt;include&amp;gt;&amp;gt;" style="edgeLabel;resizable=0;html=1;;align=center;verticalAlign=middle;" connectable="0" vertex="1" parent="21yyyPcz-Bat1MeMMOh2-41">
          <mxGeometry relative="1" as="geometry" />
        </mxCell>
        <mxCell id="21yyyPcz-Bat1MeMMOh2-48" value="" style="endArrow=open;html=1;rounded=0;exitX=0.548;exitY=1.014;exitDx=0;exitDy=0;dashed=1;endFill=0;entryX=0;entryY=0;entryDx=0;entryDy=0;exitPerimeter=0;" edge="1" parent="1" source="21yyyPcz-Bat1MeMMOh2-15" target="21yyyPcz-Bat1MeMMOh2-28">
          <mxGeometry relative="1" as="geometry">
            <mxPoint x="900" y="280" as="sourcePoint" />
            <mxPoint x="750" y="240" as="targetPoint" />
          </mxGeometry>
        </mxCell>
        <mxCell id="21yyyPcz-Bat1MeMMOh2-49" value="&amp;lt;&amp;lt;extend&amp;gt;&amp;gt;" style="edgeLabel;resizable=0;html=1;;align=center;verticalAlign=middle;" connectable="0" vertex="1" parent="21yyyPcz-Bat1MeMMOh2-48">
          <mxGeometry relative="1" as="geometry" />
        </mxCell>
        <mxCell id="21yyyPcz-Bat1MeMMOh2-50" value="" style="endArrow=open;html=1;rounded=0;exitX=0;exitY=0;exitDx=0;exitDy=0;dashed=1;endFill=0;entryX=1;entryY=1;entryDx=0;entryDy=0;" edge="1" parent="1" source="21yyyPcz-Bat1MeMMOh2-15" target="21yyyPcz-Bat1MeMMOh2-40">
          <mxGeometry relative="1" as="geometry">
            <mxPoint x="858" y="268" as="sourcePoint" />
            <mxPoint x="770" y="200" as="targetPoint" />
          </mxGeometry>
        </mxCell>
        <mxCell id="21yyyPcz-Bat1MeMMOh2-51" value="&amp;lt;&amp;lt;extend&amp;gt;&amp;gt;" style="edgeLabel;resizable=0;html=1;;align=center;verticalAlign=middle;" connectable="0" vertex="1" parent="21yyyPcz-Bat1MeMMOh2-50">
          <mxGeometry relative="1" as="geometry" />
        </mxCell>
        <mxCell id="21yyyPcz-Bat1MeMMOh2-52" value="" style="endArrow=none;html=1;rounded=0;exitX=0.5;exitY=0;exitDx=0;exitDy=0;" edge="1" parent="1" source="21yyyPcz-Bat1MeMMOh2-40" target="vp1Ev-h1PS9OKGyUTr1B-5">
          <mxGeometry width="50" height="50" relative="1" as="geometry">
            <mxPoint x="700" y="250" as="sourcePoint" />
            <mxPoint x="750" y="200" as="targetPoint" />
          </mxGeometry>
        </mxCell>
        <mxCell id="21yyyPcz-Bat1MeMMOh2-53" value="Loguj się" style="ellipse;whiteSpace=wrap;html=1;" vertex="1" parent="1">
          <mxGeometry x="835" y="190" width="120" height="80" as="geometry" />
        </mxCell>
        <mxCell id="21yyyPcz-Bat1MeMMOh2-55" value="" style="endArrow=open;html=1;rounded=0;entryX=0.5;entryY=1;entryDx=0;entryDy=0;endFill=0;dashed=1;exitX=0.5;exitY=0;exitDx=0;exitDy=0;" edge="1" parent="1" source="21yyyPcz-Bat1MeMMOh2-28" target="21yyyPcz-Bat1MeMMOh2-53">
          <mxGeometry relative="1" as="geometry">
            <mxPoint x="1130" y="300" as="sourcePoint" />
            <mxPoint x="960" y="310" as="targetPoint" />
          </mxGeometry>
        </mxCell>
        <mxCell id="21yyyPcz-Bat1MeMMOh2-56" value="&amp;lt;&amp;lt;include&amp;gt;&amp;gt;" style="edgeLabel;resizable=0;html=1;;align=center;verticalAlign=middle;" connectable="0" vertex="1" parent="21yyyPcz-Bat1MeMMOh2-55">
          <mxGeometry relative="1" as="geometry" />
        </mxCell>
        <mxCell id="21yyyPcz-Bat1MeMMOh2-57" value="" style="endArrow=open;html=1;rounded=0;entryX=0;entryY=0.5;entryDx=0;entryDy=0;endFill=0;dashed=1;exitX=1;exitY=0.5;exitDx=0;exitDy=0;" edge="1" parent="1" source="21yyyPcz-Bat1MeMMOh2-40" target="21yyyPcz-Bat1MeMMOh2-53">
          <mxGeometry relative="1" as="geometry">
            <mxPoint x="1130" y="170" as="sourcePoint" />
            <mxPoint x="960" y="180" as="targetPoint" />
          </mxGeometry>
        </mxCell>
        <mxCell id="21yyyPcz-Bat1MeMMOh2-58" value="&amp;lt;&amp;lt;include&amp;gt;&amp;gt;" style="edgeLabel;resizable=0;html=1;;align=center;verticalAlign=middle;" connectable="0" vertex="1" parent="21yyyPcz-Bat1MeMMOh2-57">
          <mxGeometry relative="1" as="geometry" />
        </mxCell>
        <mxCell id="21yyyPcz-Bat1MeMMOh2-59" value="" style="endArrow=open;html=1;rounded=0;endFill=0;dashed=1;entryX=1;entryY=0;entryDx=0;entryDy=0;exitX=0.5;exitY=1;exitDx=0;exitDy=0;" edge="1" parent="1" source="vp1Ev-h1PS9OKGyUTr1B-10" target="21yyyPcz-Bat1MeMMOh2-53">
          <mxGeometry relative="1" as="geometry">
            <mxPoint x="1070" y="300" as="sourcePoint" />
            <mxPoint x="1060" y="170" as="targetPoint" />
          </mxGeometry>
        </mxCell>
        <mxCell id="21yyyPcz-Bat1MeMMOh2-60" value="&amp;lt;&amp;lt;include&amp;gt;&amp;gt;" style="edgeLabel;resizable=0;html=1;;align=center;verticalAlign=middle;" connectable="0" vertex="1" parent="21yyyPcz-Bat1MeMMOh2-59">
          <mxGeometry relative="1" as="geometry" />
        </mxCell>
        <mxCell id="21yyyPcz-Bat1MeMMOh2-62" value="" style="endArrow=none;html=1;rounded=0;exitX=0;exitY=0;exitDx=0;exitDy=0;" edge="1" parent="1" source="vp1Ev-h1PS9OKGyUTr1B-10" target="vp1Ev-h1PS9OKGyUTr1B-7">
          <mxGeometry width="50" height="50" relative="1" as="geometry">
            <mxPoint x="810" y="430" as="sourcePoint" />
            <mxPoint x="860" y="380" as="targetPoint" />
          </mxGeometry>
        </mxCell>
        <mxCell id="21yyyPcz-Bat1MeMMOh2-63" value="Potwierdź&lt;div&gt;pełnoletność&lt;/div&gt;" style="ellipse;whiteSpace=wrap;html=1;" vertex="1" parent="1">
          <mxGeometry x="370" y="280" width="120" height="80" as="geometry" />
        </mxCell>
        <mxCell id="21yyyPcz-Bat1MeMMOh2-64" value="" style="endArrow=open;html=1;rounded=0;endFill=0;dashed=1;exitX=0.5;exitY=0;exitDx=0;exitDy=0;entryX=0.5;entryY=1;entryDx=0;entryDy=0;" edge="1" parent="1" source="21yyyPcz-Bat1MeMMOh2-63" target="21yyyPcz-Bat1MeMMOh2-3">
          <mxGeometry relative="1" as="geometry">
            <mxPoint x="720" y="430" as="sourcePoint" />
            <mxPoint x="200" y="410" as="targetPoint" />
          </mxGeometry>
        </mxCell>
        <mxCell id="21yyyPcz-Bat1MeMMOh2-65" value="&amp;lt;&amp;lt;include&amp;gt;&amp;gt;" style="edgeLabel;resizable=0;html=1;;align=center;verticalAlign=middle;" connectable="0" vertex="1" parent="21yyyPcz-Bat1MeMMOh2-64">
          <mxGeometry relative="1" as="geometry" />
        </mxCell>
        <mxCell id="21yyyPcz-Bat1MeMMOh2-68" value="" style="endArrow=open;html=1;rounded=0;endFill=0;dashed=1;exitX=0.5;exitY=1;exitDx=0;exitDy=0;entryX=0;entryY=0;entryDx=0;entryDy=0;" edge="1" parent="1" source="21yyyPcz-Bat1MeMMOh2-63" target="21yyyPcz-Bat1MeMMOh2-2">
          <mxGeometry relative="1" as="geometry">
            <mxPoint x="310" y="540" as="sourcePoint" />
            <mxPoint x="300" y="480" as="targetPoint" />
          </mxGeometry>
        </mxCell>
        <mxCell id="21yyyPcz-Bat1MeMMOh2-69" value="&amp;lt;&amp;lt;include&amp;gt;&amp;gt;" style="edgeLabel;resizable=0;html=1;;align=center;verticalAlign=middle;" connectable="0" vertex="1" parent="21yyyPcz-Bat1MeMMOh2-68">
          <mxGeometry relative="1" as="geometry" />
        </mxCell>
      </root>
    </mxGraphModel>
  </diagram>
</mxfile>
